<?xml version="1.0" encoding="utf-8"?>
<!-- Generator: Adobe Illustrator 27.7.0, SVG Export Plug-In . SVG Version: 6.00 Build 0)  -->
<svg version="1.1" id="Layer_1" xmlns="http://www.w3.org/2000/svg" xmlns:xlink="http://www.w3.org/1999/xlink" x="0px" y="0px"
	 viewBox="0 0 800 800" style="enable-background:new 0 0 800 800;" xml:space="preserve">
<style type="text/css">
	.st0{fill:#FFFFFF;}
</style>
<path class="st0" d="M208.4,420.1c0,17.7-14.3,32-32,32s-32-14.3-32-32s14.3-32,32-32S208.4,402.4,208.4,420.1z M351.2,420.1
	c0,17.7-14.3,32-32,32s-32-14.3-32-32s14.3-32,32-32S351.2,402.4,351.2,420.1z M494,420.1c0,17.7-14.3,32-32,32s-32-14.3-32-32
	s14.3-32,32-32S494,402.4,494,420.1z M636.8,420.1c0,17.7-14.3,32-32,32s-32-14.3-32-32s14.3-32,32-32S636.8,402.4,636.8,420.1z
	 M208.4,530.7c0,17.7-14.3,32-32,32s-32-14.3-32-32s14.3-32,32-32S208.4,513.1,208.4,530.7z M351.2,530.7c0,17.7-14.3,32-32,32
	s-32-14.3-32-32s14.3-32,32-32S351.2,513.1,351.2,530.7z M494,530.7c0,17.7-14.3,32-32,32s-32-14.3-32-32s14.3-32,32-32
	S494,513.1,494,530.7z M636.8,530.7c0,17.7-14.3,32-32,32s-32-14.3-32-32s14.3-32,32-32S636.8,513.1,636.8,530.7z M208.4,641.4
	c0,17.7-14.3,32-32,32s-32-14.3-32-32s14.3-32,32-32S208.4,623.7,208.4,641.4z M351.2,641.4c0,17.7-14.3,32-32,32s-32-14.3-32-32
	s14.3-32,32-32S351.2,623.7,351.2,641.4z M494,641.4c0,17.7-14.3,32-32,32s-32-14.3-32-32s14.3-32,32-32S494,623.7,494,641.4z
	 M636.8,641.4c0,17.7-14.3,32-32,32s-32-14.3-32-32s14.3-32,32-32S636.8,623.7,636.8,641.4z M178.3,64v120c0,8.8,7.2,16,16,16
	c8.8,0,16-7.2,16-16V64c0-8.8-7.2-16-16-16C185.4,48,178.3,55.2,178.3,64z M590.8,64v120c0,8.8,7.2,16,16,16s16-7.2,16-16V64
	c0-8.8-7.2-16-16-16S590.8,55.2,590.8,64z"/>
<path class="st0" d="M696,107.4c26.5,0,48,21.5,48,48v549.5c0,26.5-21.5,48-48,48H104c-26.5,0-48-21.5-48-48V155.4
	c0-26.5,21.5-48,48-48H696z M104,139.4c-8.8,0-16,7.2-16,16v549.5c0,8.8,7.2,16,16,16h592c8.8,0,16-7.2,16-16V155.4
	c0-8.8-7.2-16-16-16L104,139.4L104,139.4z"/>
<path class="st0" d="M449.2,264.3c0-26.5-21.5-48-48-48c-26.5,0-48,21.5-48,48c0,26.5,21.5,48,48,48
	C427.8,312.3,449.2,290.8,449.2,264.3z M481.2,264.3c0,44.2-35.8,80-80,80s-80-35.8-80-80s35.8-80,80-80
	C445.4,184.3,481.2,220.1,481.2,264.3z"/>
</svg>
