<?xml version="1.0" encoding="utf-8"?>
<!-- Generator: Adobe Illustrator 27.7.0, SVG Export Plug-In . SVG Version: 6.00 Build 0)  -->
<svg version="1.1" id="Layer_1" xmlns="http://www.w3.org/2000/svg" xmlns:xlink="http://www.w3.org/1999/xlink" x="0px" y="0px"
	 viewBox="0 0 800 800" style="enable-background:new 0 0 800 800;" xml:space="preserve">
<style type="text/css">
	.st0{fill:#FFFFFF;}
</style>
<path class="st0" d="M495.8,594.9c19.4-19.1,8.9-63-22.8-113.7c11.5-1.8,22.3-4.5,30.5-8.8c29.3-15.1,49.1-42.7,64.1-71.3
	c16.1-30.6,26.9-64.3,48-92.1c3.5-4.7,7.1-8.9,10.6-12.9c45.4,5.4,81.6,15.2,81.6,15.2l13.8-35.2c-17.5-6.3-35.4-11.2-53.6-14.8
	c11.1-6.3,18.4-8.3,18.4-8.3l-13.1-35.5c-21,8.9-38.1,22-52.4,37.7c-53.4-3-107.2,7.6-149.6,40.5c-31.9,24.8-53.5,59.1-73.7,93.4
	c-18-17.6-37.1-34-57.3-49.1c3.8-6.3,7.9-11.9,12.3-16.3c26.7-26.2,61.8-43,84.9-73.1c48.5-63.1,13-161.9-26.9-213.1
	c-7.1,6.9-19,16.9-27.9,24.8c42.4,43.4,72.1,119.5,38.8,176.3c-18.6,31.8-52.9,51.7-76.9,79c-4.2,4.7-7.9,10.7-11.2,17.4
	c-62.8-45-120.4-63.1-143.2-40.7c-2.3,2.3-4.1,5-5.5,7.9l-0.1-0.1l-0.6,1.8c-0.9,1.9-1.6,4-2.1,6.2L25,762.5l458.3-160.2l-0.1-0.1
	C488.1,600.6,492.4,598.2,495.8,594.9 M116.2,704.2l-38.2-17.8l25.8-74.4l118.4,55.1L116.2,704.2 M328.1,630.1l-198.5-92.5
	l25.8-74.4l148.3,74.5C215.2,480,181.2,388.8,181.2,388.8l8.8-25.4c15.7,39.7,50.2,89.1,97.6,135.8c47.8,47.1,98.5,81.2,139,96.4
	L328.1,630.1 M404.3,395.8c20.7-29.7,42.1-59.7,71.8-81c28.3-20.3,74.2-24,117.7-21.6c-14.7,25.7-25.6,54.2-35.3,81.5
	c-11.8,33.1-27.6,67.5-57.7,87.8c-8.1,5.5-19.5,9.5-31.7,12.4C452.4,449.3,430.4,422.2,404.3,395.8"/>
<path class="st0" d="M287.9,275c12.5,0-25-37.5-18.8-70.4c24.1-1.9,79,9,47-35c36.2,6.4,54.9-20.6,20.8-46.3
	c11.4,0.8,29-20.6,16.4-23.4c-40.7-8.6-56.6,13.4-30.8,45.1c-27.1-5.1-49.2,7.6-28.9,35.9C215.4,171.2,259.9,275,287.9,275"/>
<path class="st0" d="M556.8,241.7c11.7-5.3-8.2-40.3-14.7-49.3c49.5-5.3,47.7-20.1,16.6-51.7c84.5,2.8,2.6-45.2,14.1-64.2
	c9.9-16.5,40.4,0.8,37.6-8.4c-9.5-30.7-99.9-9.9-42.7,47.4c-49.9,1-54.7,17.3-17.5,51.1C485.5,167.4,538.3,250,556.8,241.7"/>
<path class="st0" d="M771.2,365.3c-19.8,5.5-22.8,3.5-20.2,23.1c-45.7-21-94-50.3-64.7,27.2c-51.9-30.9-49.3-3.8-59,40.7
	c-12.6-9.8-30.6-35.8-30.6-35.8l-19,16.1c0,0,34.8,49.1,52,46.3c15.1-2.4,23.3-31,24.2-56.2c48.1,20.3,71.2,23,49.1-36.4
	C741.6,412.1,788.8,431.1,771.2,365.3"/>
<path class="st0" d="M75.6,143l35.4,35.4l-35.4,35.4l-35.4-35.3L75.6,143z"/>
<path class="st0" d="M160.3,290l-35.4,35.4L89.6,290l35.4-35.4L160.3,290z"/>
<path class="st0" d="M215.2,87.5l35.4,35.3l-35.4,35.4l-35.4-35.4L215.2,87.5z"/>
<path class="st0" d="M600.1,581l-35.4-35.4l35.3-35.4l35.4,35.4L600.1,581z"/>
<path class="st0" d="M521.3,702.3L486,667l35.3-35.4l35.4,35.4L521.3,702.3z"/>
<path class="st0" d="M676.4,730.2L641,694.9l35.3-35.4l35.4,35.4L676.4,730.2z"/>
<path class="st0" d="M711.8,569.2l-35.3-35.4l35.3-35.4l35.3,35.4L711.8,569.2z"/>
<path class="st0" d="M652.8,125l35.3,35.4l-35.4,35.4l-35.4-35.4L652.8,125z"/>
</svg>
