<?xml version="1.0" encoding="utf-8"?>
<!-- Generator: Adobe Illustrator 27.7.0, SVG Export Plug-In . SVG Version: 6.00 Build 0)  -->
<svg version="1.1" id="Layer_1" xmlns="http://www.w3.org/2000/svg" xmlns:xlink="http://www.w3.org/1999/xlink" x="0px" y="0px"
	 viewBox="0 0 800 800" style="enable-background:new 0 0 800 800;" xml:space="preserve">
<style type="text/css">
	.st0{fill-rule:evenodd;clip-rule:evenodd;fill:#FFFFFF;}
</style>
<g>
	<path class="st0" d="M400,175c-124.3,0-225,100.7-225,225s100.7,225,225,225s225-100.7,225-225S524.3,175,400,175z M400,600
		c-110.5,0-200-89.5-200-200s89.5-200,200-200s200,89.5,200,200S510.5,600,400,600z"/>
	<path class="st0" d="M400,250c-6.9,0-12.5,5.6-12.5,12.5c0,6.9,5.6,12.5,12.5,12.5c69,0,125,56,125,125c0,6.9,5.6,12.5,12.5,12.5
		S550,406.9,550,400C550,317.2,482.8,250,400,250z"/>
	<path class="st0" d="M787.5,387.5h-125c-6.9,0-12.5,5.6-12.5,12.5s5.6,12.5,12.5,12.5h125c6.9,0,12.5-5.6,12.5-12.5
		S794.4,387.5,787.5,387.5z"/>
	<path class="st0" d="M143.2,455.9l-48.3,12.9c-6.7,1.8-10.6,8.7-8.8,15.3c1.8,6.7,8.6,10.6,15.3,8.8l48.3-12.9
		c6.7-1.8,10.6-8.6,8.8-15.3C156.7,458.1,149.9,454.1,143.2,455.9z"/>
	<path class="st0" d="M616.5,275c3.5,6,11.1,8,17.1,4.6l108.2-62.5c6-3.4,8-11.1,4.6-17.1c-3.4-6-11.1-8-17.1-4.6l-108.2,62.5
		C615.1,261.4,613.1,269,616.5,275z"/>
	<path class="st0" d="M223.2,576.8c-4.9-4.9-12.8-4.9-17.7,0l-35.4,35.3c-4.9,4.9-4.9,12.8,0,17.7c4.9,4.9,12.8,4.9,17.7,0
		l35.4-35.3C228.1,589.6,228.1,581.7,223.2,576.8z"/>
	<path class="st0" d="M525,183.5c6,3.4,13.6,1.4,17.1-4.6l62.5-108.2c3.5-6,1.4-13.6-4.6-17.1c-6-3.5-13.6-1.4-17.1,4.6l-62.5,108.3
		C517,172.4,519,180,525,183.5z"/>
	<path class="st0" d="M335.3,641.5c-6.6-1.8-13.5,2.2-15.3,8.8L307,698.6c-1.8,6.7,2.2,13.5,8.9,15.3c6.7,1.8,13.5-2.2,15.3-8.9
		l12.9-48.3C346,650.2,342,643.3,335.3,641.5z"/>
	<path class="st0" d="M400,150c6.9,0,12.5-5.6,12.5-12.5v-125C412.5,5.6,406.9,0,400,0c-6.9,0-12.5,5.6-12.5,12.5l0,125
		C387.5,144.4,393.1,150,400,150z"/>
	<path class="st0" d="M480,650.3c-1.8-6.7-8.6-10.6-15.3-8.8c-6.7,1.8-10.6,8.6-8.8,15.3l12.9,48.3c1.8,6.7,8.7,10.6,15.3,8.8
		c6.7-1.8,10.6-8.6,8.8-15.3L480,650.3z"/>
	<path class="st0" d="M258,178.9c3.4,6,11.1,8,17,4.6c6-3.5,8.1-11.1,4.6-17.1L217.1,58.2c-3.5-6-11.1-8-17.1-4.6
		c-6,3.4-8,11.1-4.6,17.1L258,178.9z"/>
	<path class="st0" d="M594.5,576.8c-4.8-4.9-12.8-4.9-17.7,0c-4.9,4.9-4.9,12.8,0,17.7l35.3,35.3c4.9,4.9,12.8,4.9,17.7,0
		c4.9-4.9,4.9-12.8,0-17.7L594.5,576.8z"/>
	<path class="st0" d="M58.2,217.1l108.3,62.5c6,3.4,13.6,1.4,17-4.6c3.5-6,1.4-13.6-4.6-17.1L70.7,195.4c-6-3.5-13.6-1.4-17.1,4.6
		C50.2,206,52.2,213.6,58.2,217.1z"/>
	<path class="st0" d="M650.3,480l48.3,12.9c6.7,1.8,13.5-2.2,15.3-8.9c1.8-6.7-2.2-13.5-8.8-15.3l-48.3-12.9
		c-6.6-1.8-13.5,2.2-15.3,8.8C639.7,471.4,643.7,478.2,650.3,480z"/>
	<path class="st0" d="M150,400c0-6.9-5.6-12.5-12.5-12.5l-125,0C5.6,387.5,0,393.1,0,400c0,6.9,5.6,12.5,12.5,12.5l125,0
		C144.4,412.5,150,406.9,150,400z"/>
	<path class="st0" d="M656.8,344.1l48.3-12.9c6.7-1.8,10.6-8.7,8.8-15.3c-1.8-6.6-8.6-10.6-15.3-8.8L650.3,320
		c-6.7,1.8-10.6,8.6-8.8,15.3C643.3,342,650.2,345.9,656.8,344.1z"/>
	<path class="st0" d="M183.5,525c-3.4-6-11.1-8-17.1-4.6L58.2,582.9c-6,3.5-8,11.1-4.6,17.1c3.5,6,11.1,8,17.1,4.6L178.9,542
		C184.9,538.6,187,531,183.5,525z"/>
	<path class="st0" d="M576.8,223.2c4.9,4.9,12.8,4.9,17.7,0l35.3-35.4c4.9-4.9,4.9-12.8,0-17.7c-4.9-4.9-12.8-4.9-17.7,0l-35.3,35.4
		C571.9,210.4,571.9,218.3,576.8,223.2z"/>
	<path class="st0" d="M275,616.5c-6-3.5-13.6-1.4-17.1,4.5l-62.5,108.3c-3.4,6-1.4,13.6,4.6,17.1c6,3.4,13.6,1.4,17.1-4.6
		l62.5-108.3C283,627.6,281,620,275,616.5z"/>
	<path class="st0" d="M464.7,158.5c6.6,1.8,13.5-2.2,15.3-8.8l12.9-48.3c1.8-6.7-2.2-13.5-8.9-15.3c-6.6-1.8-13.5,2.2-15.3,8.8
		l-12.9,48.3C454.1,149.8,458.1,156.7,464.7,158.5z"/>
	<path class="st0" d="M400,650c-6.9,0-12.5,5.6-12.5,12.5l0,125c0,6.9,5.5,12.5,12.5,12.5c6.9,0,12.5-5.6,12.5-12.5l0-125
		C412.5,655.6,406.9,650,400,650z"/>
	<path class="st0" d="M320,149.7c1.7,6.7,8.6,10.6,15.3,8.8c6.6-1.8,10.6-8.6,8.8-15.3l-12.9-48.3c-1.8-6.7-8.7-10.6-15.3-8.8
		c-6.6,1.8-10.6,8.6-8.8,15.3L320,149.7z"/>
	<path class="st0" d="M542,621.1c-3.4-6-11-8.1-17-4.6c-6,3.4-8,11.1-4.6,17L583,741.8c3.4,6,11,8,17,4.6c6-3.5,8-11.1,4.6-17.1
		L542,621.1z"/>
	<path class="st0" d="M205.5,223.2c4.8,4.9,12.8,4.9,17.7,0c4.9-4.9,4.8-12.8,0-17.7l-35.4-35.4c-4.9-4.9-12.8-4.9-17.7,0
		c-4.9,4.9-4.9,12.8,0,17.6L205.5,223.2z"/>
	<path class="st0" d="M741.8,582.9l-108.3-62.5c-6-3.5-13.6-1.5-17,4.6c-3.5,6-1.4,13.6,4.5,17l108.3,62.5c6,3.4,13.6,1.4,17-4.6
		C749.8,594,747.8,586.4,741.8,582.9z"/>
	<path class="st0" d="M149.7,320l-48.3-13c-6.7-1.8-13.5,2.2-15.3,8.9c-1.8,6.6,2.1,13.5,8.8,15.3l48.3,12.9
		c6.6,1.8,13.5-2.2,15.3-8.8C160.3,328.7,156.3,321.8,149.7,320z"/>
</g>
</svg>
